<?xml version="1.0" standalone="no"?>
<!DOCTYPE svg PUBLIC "-//W3C//DTD SVG 20010904//EN"
 "http://www.w3.org/TR/2001/REC-SVG-20010904/DTD/svg10.dtd">
<svg version="1.0" xmlns="http://www.w3.org/2000/svg"
 width="947.000000pt" height="947.000000pt" viewBox="0 0 947.000000 947.000000"
 preserveAspectRatio="xMidYMid meet">
<metadata>
Created by potrace 1.14, written by Peter Selinger 2001-2017
</metadata>
<g transform="translate(0.000000,947.000000) scale(0.100000,-0.100000)"
fill="#000000" stroke="none">
<path d="M1290 8529 c-91 -12 -193 -64 -259 -134 -69 -73 -109 -159 -121 -266
-7 -55 -10 -987 -8 -2739 3 -2557 4 -2657 22 -2710 27 -80 59 -130 124 -192
67 -64 144 -103 233 -117 42 -7 625 -11 1733 -11 1445 0 1667 -2 1663 -14 -3
-8 -2 -16 2 -18 5 -2 72 -190 149 -418 78 -228 181 -532 231 -674 50 -143 88
-263 85 -268 -3 -4 0 -8 6 -8 7 0 9 -7 6 -16 -3 -9 -1 -14 5 -12 6 2 299 305
650 673 l640 669 102 0 c89 1 109 5 160 28 32 15 84 53 117 84 l59 56 25 -50
c29 -58 73 -95 131 -111 123 -34 261 12 310 102 15 29 17 38 6 51 -12 14 -16
12 -35 -17 -25 -37 -69 -56 -94 -41 -39 25 -42 48 -42 389 0 365 -8 434 -58
515 -30 49 -102 103 -160 121 -20 6 -89 13 -153 16 -236 11 -406 -53 -478
-179 -17 -28 -33 -69 -36 -89 -19 -114 140 -175 222 -86 37 41 49 81 59 195 8
100 16 107 115 100 77 -6 125 -29 151 -74 24 -41 40 -172 32 -256 l-7 -67 -51
-15 c-28 -8 -87 -24 -131 -36 -95 -26 -217 -74 -263 -102 -18 -11 -35 -18 -38
-15 -3 2 -297 868 -655 1923 -853 2518 -812 2398 -819 2404 -4 3 -114 322
-246 710 l-239 705 -1540 1 c-847 1 -1569 -2 -1605 -7z m1820 -1755 c79 -18
196 -73 229 -108 34 -36 31 -82 -8 -148 -43 -72 -84 -158 -78 -164 8 -8 219
67 345 124 122 54 124 55 200 49 135 -9 212 -64 212 -151 0 -60 -24 -103 -77
-136 -76 -48 -322 -120 -612 -179 -78 -16 -143 -30 -145 -32 -5 -5 -45 -233
-42 -236 1 -2 52 8 112 22 60 14 146 28 192 31 61 5 82 11 82 21 0 24 -31 76
-67 114 -30 31 -32 37 -19 49 33 27 191 -19 253 -74 20 -17 45 -50 55 -73 16
-35 24 -43 46 -43 43 0 168 -38 248 -74 171 -79 305 -206 378 -358 55 -115 69
-183 68 -318 -5 -426 -303 -701 -867 -800 -142 -25 -312 -40 -451 -40 -111 0
-112 0 -116 25 -3 14 -2 27 1 29 4 3 44 14 91 26 610 156 950 467 950 871 0
109 -13 176 -52 257 -40 84 -130 175 -211 212 -101 46 -106 47 -119 8 -22 -66
-145 -295 -210 -393 -36 -55 -106 -149 -155 -210 l-88 -110 28 -80 c44 -126
27 -224 -43 -260 -75 -39 -167 -26 -230 31 l-38 35 -75 -55 c-89 -63 -233
-135 -332 -166 -100 -31 -250 -38 -311 -15 -64 24 -107 66 -134 127 -19 43
-23 70 -23 148 1 216 104 428 305 628 110 109 209 185 336 255 59 34 94 59 96
72 6 25 44 300 42 301 0 1 -62 -1 -136 -5 -74 -3 -164 -3 -200 1 -160 19 -261
121 -311 316 -23 92 -23 89 0 97 11 3 58 -14 122 -44 144 -70 231 -86 418 -78
93 4 147 11 152 18 8 14 20 131 20 218 1 81 -11 94 -127 130 -119 36 -120 51
-5 108 109 55 156 59 301 27z m3770 -4078 l0 -214 -55 -37 c-98 -68 -205 -56
-248 27 -22 43 -25 140 -8 205 14 52 64 119 117 156 38 26 154 75 182 76 9 1
12 -48 12 -213z"/>
<path d="M3380 5718 c-54 -11 -180 -51 -231 -72 -37 -15 -37 -15 -41 -88 -6
-88 7 -246 25 -307 l12 -44 51 59 c118 137 265 363 289 442 6 20 3 22 -27 21
-18 -1 -53 -5 -78 -11z"/>
<path d="M2737 5402 c-192 -162 -334 -402 -325 -549 4 -63 28 -73 124 -50 111
28 314 133 314 163 0 7 -7 57 -15 111 -8 54 -18 162 -23 240 l-7 142 -68 -57z"/>
<path d="M7240 5874 c-41 -16 -118 -32 -211 -44 -270 -35 -663 -72 -785 -73
-120 -2 -121 -2 -158 28 -65 51 -66 51 -77 35 -15 -22 -3 -133 19 -183 24 -53
105 -137 157 -162 61 -28 94 -24 171 23 77 46 230 90 549 155 295 61 329 60
300 -8 -21 -53 -91 -150 -154 -217 l-58 -62 -79 24 c-121 37 -324 30 -324 -10
0 -6 8 -13 18 -17 41 -15 105 -68 117 -98 61 -144 -295 -701 -600 -942 -32
-26 -38 -34 -27 -44 10 -11 30 -4 110 35 281 139 523 355 695 622 59 92 155
284 165 330 7 35 10 37 192 120 102 47 216 96 254 110 99 34 116 47 116 90 0
43 -18 78 -71 141 -78 91 -192 173 -239 172 -8 0 -44 -11 -80 -25z"/>
</g>
</svg>
